<svg width="960" height="960" viewBox="0 0 960 960" fill="none" xmlns="http://www.w3.org/2000/svg">
<path d="M164.704 560H155.296C149.057 560 144 565.057 144 571.296V644.704C144 650.943 149.057 656 155.296 656H164.704C170.943 656 176 650.943 176 644.704V571.296C176 565.057 170.943 560 164.704 560Z" fill="#F5F4F1"/>
<path d="M244.704 528H235.296C229.057 528 224 533.057 224 539.296V740.704C224 746.943 229.057 752 235.296 752H244.704C250.943 752 256 746.943 256 740.704V539.296C256 533.057 250.943 528 244.704 528Z" fill="#F5F4F1"/>
<path d="M292.704 464H283.296C277.057 464 272 469.057 272 475.296V820.704C272 826.943 277.057 832 283.296 832H292.704C298.943 832 304 826.943 304 820.704V475.296C304 469.057 298.943 464 292.704 464Z" fill="#F5F4F1"/>
<path d="M340.704 384H331.296C325.057 384 320 389.057 320 395.296V884.704C320 890.943 325.057 896 331.296 896H340.704C346.943 896 352 890.943 352 884.704V395.296C352 389.057 346.943 384 340.704 384Z" fill="#F5F4F1"/>
<path d="M388.704 288H379.296C373.057 288 368 293.057 368 299.296V916.704C368 922.943 373.057 928 379.296 928H388.704C394.943 928 400 922.943 400 916.704V299.296C400 293.057 394.943 288 388.704 288Z" fill="#F5F4F1"/>
<path d="M436.704 192H427.296C421.057 192 416 197.057 416 203.296V948.704C416 954.943 421.057 960 427.296 960H436.704C442.943 960 448 954.943 448 948.704V203.296C448 197.057 442.943 192 436.704 192Z" fill="#F5F4F1"/>
<path d="M484.704 32H475.296C469.057 32 464 37.0574 464 43.296V948.704C464 954.943 469.057 960 475.296 960H484.704C490.943 960 496 954.943 496 948.704V43.296C496 37.0574 490.943 32 484.704 32Z" fill="#F5F4F1"/>
<path d="M532.704 192H523.296C517.057 192 512 197.057 512 203.296V948.704C512 954.943 517.057 960 523.296 960H532.704C538.943 960 544 954.943 544 948.704V203.296C544 197.057 538.943 192 532.704 192Z" fill="#F5F4F1"/>
<path d="M580.704 288H571.296C565.057 288 560 293.057 560 299.296V916.704C560 922.943 565.057 928 571.296 928H580.704C586.943 928 592 922.943 592 916.704V299.296C592 293.057 586.943 288 580.704 288Z" fill="#F5F4F1"/>
<path d="M628.704 384H619.296C613.057 384 608 389.057 608 395.296V884.704C608 890.943 613.057 896 619.296 896H628.704C634.943 896 640 890.943 640 884.704V395.296C640 389.057 634.943 384 628.704 384Z" fill="#F5F4F1"/>
<path d="M676.704 464H667.296C661.057 464 656 469.057 656 475.296V820.704C656 826.943 661.057 832 667.296 832H676.704C682.943 832 688 826.943 688 820.704V475.296C688 469.057 682.943 464 676.704 464Z" fill="#F5F4F1"/>
<path d="M724.704 528H715.296C709.057 528 704 533.057 704 539.296V740.704C704 746.943 709.057 752 715.296 752H724.704C730.943 752 736 746.943 736 740.704V539.296C736 533.057 730.943 528 724.704 528Z" fill="#F5F4F1"/>
<path d="M804.704 560H795.296C789.057 560 784 565.057 784 571.296V644.704C784 650.943 789.057 656 795.296 656H804.704C810.943 656 816 650.943 816 644.704V571.296C816 565.057 810.943 560 804.704 560Z" fill="#F5F4F1"/>
</svg>
